<svg width="20" height="21" viewBox="0 0 20 21" fill="none" xmlns="http://www.w3.org/2000/svg">
<g id="building 1" clip-path="url(#clip0_64_78)">
<path id="Vector" d="M5 3.625C5 3.45924 5.06585 3.30027 5.18306 3.18306C5.30027 3.06585 5.45924 3 5.625 3H6.875C7.04076 3 7.19973 3.06585 7.31694 3.18306C7.43415 3.30027 7.5 3.45924 7.5 3.625V4.875C7.5 5.04076 7.43415 5.19973 7.31694 5.31694C7.19973 5.43415 7.04076 5.5 6.875 5.5H5.625C5.45924 5.5 5.30027 5.43415 5.18306 5.31694C5.06585 5.19973 5 5.04076 5 4.875V3.625ZM8.75 3.625C8.75 3.45924 8.81585 3.30027 8.93306 3.18306C9.05027 3.06585 9.20924 3 9.375 3H10.625C10.7908 3 10.9497 3.06585 11.0669 3.18306C11.1842 3.30027 11.25 3.45924 11.25 3.625V4.875C11.25 5.04076 11.1842 5.19973 11.0669 5.31694C10.9497 5.43415 10.7908 5.5 10.625 5.5H9.375C9.20924 5.5 9.05027 5.43415 8.93306 5.31694C8.81585 5.19973 8.75 5.04076 8.75 4.875V3.625ZM13.125 3C12.9592 3 12.8003 3.06585 12.6831 3.18306C12.5658 3.30027 12.5 3.45924 12.5 3.625V4.875C12.5 5.04076 12.5658 5.19973 12.6831 5.31694C12.8003 5.43415 12.9592 5.5 13.125 5.5H14.375C14.5408 5.5 14.6997 5.43415 14.8169 5.31694C14.9342 5.19973 15 5.04076 15 4.875V3.625C15 3.45924 14.9342 3.30027 14.8169 3.18306C14.6997 3.06585 14.5408 3 14.375 3H13.125ZM5 7.375C5 7.20924 5.06585 7.05027 5.18306 6.93306C5.30027 6.81585 5.45924 6.75 5.625 6.75H6.875C7.04076 6.75 7.19973 6.81585 7.31694 6.93306C7.43415 7.05027 7.5 7.20924 7.5 7.375V8.625C7.5 8.79076 7.43415 8.94973 7.31694 9.06694C7.19973 9.18415 7.04076 9.25 6.875 9.25H5.625C5.45924 9.25 5.30027 9.18415 5.18306 9.06694C5.06585 8.94973 5 8.79076 5 8.625V7.375ZM9.375 6.75C9.20924 6.75 9.05027 6.81585 8.93306 6.93306C8.81585 7.05027 8.75 7.20924 8.75 7.375V8.625C8.75 8.79076 8.81585 8.94973 8.93306 9.06694C9.05027 9.18415 9.20924 9.25 9.375 9.25H10.625C10.7908 9.25 10.9497 9.18415 11.0669 9.06694C11.1842 8.94973 11.25 8.79076 11.25 8.625V7.375C11.25 7.20924 11.1842 7.05027 11.0669 6.93306C10.9497 6.81585 10.7908 6.75 10.625 6.75H9.375ZM12.5 7.375C12.5 7.20924 12.5658 7.05027 12.6831 6.93306C12.8003 6.81585 12.9592 6.75 13.125 6.75H14.375C14.5408 6.75 14.6997 6.81585 14.8169 6.93306C14.9342 7.05027 15 7.20924 15 7.375V8.625C15 8.79076 14.9342 8.94973 14.8169 9.06694C14.6997 9.18415 14.5408 9.25 14.375 9.25H13.125C12.9592 9.25 12.8003 9.18415 12.6831 9.06694C12.5658 8.94973 12.5 8.79076 12.5 8.625V7.375ZM5.625 10.5C5.45924 10.5 5.30027 10.5658 5.18306 10.6831C5.06585 10.8003 5 10.9592 5 11.125V12.375C5 12.5408 5.06585 12.6997 5.18306 12.8169C5.30027 12.9342 5.45924 13 5.625 13H6.875C7.04076 13 7.19973 12.9342 7.31694 12.8169C7.43415 12.6997 7.5 12.5408 7.5 12.375V11.125C7.5 10.9592 7.43415 10.8003 7.31694 10.6831C7.19973 10.5658 7.04076 10.5 6.875 10.5H5.625ZM8.75 11.125C8.75 10.9592 8.81585 10.8003 8.93306 10.6831C9.05027 10.5658 9.20924 10.5 9.375 10.5H10.625C10.7908 10.5 10.9497 10.5658 11.0669 10.6831C11.1842 10.8003 11.25 10.9592 11.25 11.125V12.375C11.25 12.5408 11.1842 12.6997 11.0669 12.8169C10.9497 12.9342 10.7908 13 10.625 13H9.375C9.20924 13 9.05027 12.9342 8.93306 12.8169C8.81585 12.6997 8.75 12.5408 8.75 12.375V11.125ZM13.125 10.5C12.9592 10.5 12.8003 10.5658 12.6831 10.6831C12.5658 10.8003 12.5 10.9592 12.5 11.125V12.375C12.5 12.5408 12.5658 12.6997 12.6831 12.8169C12.8003 12.9342 12.9592 13 13.125 13H14.375C14.5408 13 14.6997 12.9342 14.8169 12.8169C14.9342 12.6997 15 12.5408 15 12.375V11.125C15 10.9592 14.9342 10.8003 14.8169 10.6831C14.6997 10.5658 14.5408 10.5 14.375 10.5H13.125Z" fill="white"/>
<path id="Vector_2" d="M2.5 1.75C2.5 1.41848 2.6317 1.10054 2.86612 0.866117C3.10054 0.631696 3.41848 0.5 3.75 0.5L16.25 0.5C16.5815 0.5 16.8995 0.631696 17.1339 0.866117C17.3683 1.10054 17.5 1.41848 17.5 1.75V19.25C17.5 19.5815 17.3683 19.8995 17.1339 20.1339C16.8995 20.3683 16.5815 20.5 16.25 20.5H3.75C3.41848 20.5 3.10054 20.3683 2.86612 20.1339C2.6317 19.8995 2.5 19.5815 2.5 19.25V1.75ZM16.25 1.75H3.75V19.25H7.5V16.125C7.5 15.9592 7.56585 15.8003 7.68306 15.6831C7.80027 15.5658 7.95924 15.5 8.125 15.5H11.875C12.0408 15.5 12.1997 15.5658 12.3169 15.6831C12.4342 15.8003 12.5 15.9592 12.5 16.125V19.25H16.25V1.75Z" fill="white"/>
</g>
<defs>
<clipPath id="clip0_64_78">
<rect width="20" height="20" fill="white" transform="translate(0 0.5)"/>
</clipPath>
</defs>
</svg>
