<svg width="20" height="20" viewBox="0 0 20 20" fill="none" xmlns="http://www.w3.org/2000/svg">
<g id="backpack2 2" clip-path="url(#clip0_64_110)">
<path id="Vector" d="M5.04976 9.28783C5.21959 8.09598 5.81374 7.00543 6.72307 6.21648C7.63241 5.42753 8.79587 4.99316 9.99976 4.99316C11.2036 4.99316 12.3671 5.42753 13.2764 6.21648C14.1858 7.00543 14.7799 8.09598 14.9498 9.28783C14.9628 9.36978 14.9594 9.45352 14.9397 9.53414C14.9201 9.61476 14.8845 9.69066 14.8352 9.75741C14.7859 9.82416 14.7238 9.88042 14.6525 9.92291C14.5812 9.9654 14.5022 9.99327 14.42 10.0049C14.3379 10.0165 14.2542 10.0116 14.1739 9.99059C14.0937 9.96953 14.0184 9.9327 13.9525 9.88224C13.8866 9.83178 13.8314 9.76871 13.7902 9.6967C13.7489 9.62469 13.7225 9.54519 13.7123 9.46283C13.5849 8.56894 13.1393 7.75103 12.4573 7.15932C11.7753 6.5676 10.9027 6.24183 9.99976 6.24183C9.09685 6.24183 8.22425 6.5676 7.54224 7.15932C6.86024 7.75103 6.41463 8.56894 6.28726 9.46283C6.27706 9.54519 6.25057 9.62469 6.20932 9.6967C6.16807 9.76871 6.1129 9.83178 6.04701 9.88224C5.98113 9.9327 5.90585 9.96953 5.82558 9.99059C5.74531 10.0116 5.66165 10.0165 5.57948 10.0049C5.49731 9.99327 5.41828 9.9654 5.34699 9.92291C5.27571 9.88042 5.2136 9.82416 5.16429 9.75741C5.11498 9.69066 5.07945 9.61476 5.05979 9.53414C5.04013 9.45352 5.03672 9.36978 5.04976 9.28783Z" fill="white"/>
<path id="Vector_2" fill-rule="evenodd" clip-rule="evenodd" d="M5 11.875C5 11.7092 5.06585 11.5503 5.18306 11.4331C5.30027 11.3158 5.45924 11.25 5.625 11.25H14.375C14.5408 11.25 14.6997 11.3158 14.8169 11.4331C14.9342 11.5503 15 11.7092 15 11.875V16.875C15 17.0408 14.9342 17.1997 14.8169 17.3169C14.6997 17.4342 14.5408 17.5 14.375 17.5H5.625C5.45924 17.5 5.30027 17.4342 5.18306 17.3169C5.06585 17.1997 5 17.0408 5 16.875V11.875ZM6.25 12.5V16.25H13.75V12.5H12.5V13.125C12.5 13.2908 12.4342 13.4497 12.3169 13.5669C12.1997 13.6842 12.0408 13.75 11.875 13.75C11.7092 13.75 11.5503 13.6842 11.4331 13.5669C11.3158 13.4497 11.25 13.2908 11.25 13.125V12.5H6.25Z" fill="white"/>
<path id="Vector_3" d="M7.5 2.92625V2.5C7.5 1.83696 7.76339 1.20107 8.23223 0.732233C8.70107 0.263392 9.33696 0 10 0C10.663 0 11.2989 0.263392 11.7678 0.732233C12.2366 1.20107 12.5 1.83696 12.5 2.5V2.92625C15.4125 3.95625 17.5 6.735 17.5 10V11.4888L18.9625 12.22C19.2742 12.3756 19.5364 12.615 19.7197 12.9113C19.9029 13.2076 20 13.5491 20 13.8975V16.875C20 17.3723 19.8025 17.8492 19.4508 18.2008C19.0992 18.5525 18.6223 18.75 18.125 18.75H16.875C16.305 19.5088 15.3975 20 14.375 20H5.625C5.13981 20.0003 4.66123 19.8875 4.22726 19.6705C3.79329 19.4535 3.41588 19.1383 3.125 18.75H1.875C1.37772 18.75 0.900805 18.5525 0.549175 18.2008C0.197544 17.8492 0 17.3723 0 16.875L0 13.8975C1.17688e-05 13.5491 0.0970907 13.2076 0.280348 12.9113C0.463605 12.615 0.725792 12.3756 1.0375 12.22L2.5 11.4888V10C2.49981 8.44867 2.98053 6.93543 3.87596 5.66861C4.77139 4.40179 6.03751 3.4437 7.5 2.92625ZM8.75 2.5V2.60375C9.57754 2.46482 10.4225 2.46482 11.25 2.60375V2.5C11.25 2.16848 11.1183 1.85054 10.8839 1.61612C10.6495 1.3817 10.3315 1.25 10 1.25C9.66848 1.25 9.35054 1.3817 9.11612 1.61612C8.8817 1.85054 8.75 2.16848 8.75 2.5ZM3.75 16.875C3.75 17.3723 3.94754 17.8492 4.29917 18.2008C4.65081 18.5525 5.12772 18.75 5.625 18.75H14.375C14.8723 18.75 15.3492 18.5525 15.7008 18.2008C16.0525 17.8492 16.25 17.3723 16.25 16.875V10C16.25 8.3424 15.5915 6.75269 14.4194 5.58058C13.2473 4.40848 11.6576 3.75 10 3.75C8.3424 3.75 6.75269 4.40848 5.58058 5.58058C4.40848 6.75269 3.75 8.3424 3.75 10V16.875ZM2.5 12.8875L1.595 13.34C1.49132 13.392 1.40413 13.4717 1.3432 13.5704C1.28228 13.6691 1.25 13.7828 1.25 13.8988V16.875C1.25 17.0408 1.31585 17.1997 1.43306 17.3169C1.55027 17.4342 1.70924 17.5 1.875 17.5H2.5V12.8862V12.8875ZM17.5 12.8875V17.5H18.125C18.2908 17.5 18.4497 17.4342 18.5669 17.3169C18.6842 17.1997 18.75 17.0408 18.75 16.875V13.8975C18.75 13.7815 18.7177 13.6678 18.6568 13.5692C18.5959 13.4705 18.5087 13.3907 18.405 13.3387L17.5 12.8862V12.8875Z" fill="white"/>
</g>
<defs>
<clipPath id="clip0_64_110">
<rect width="20" height="20" fill="white"/>
</clipPath>
</defs>
</svg>
