<svg width="19" height="20" viewBox="0 0 19 20" fill="none" xmlns="http://www.w3.org/2000/svg">
<path d="M13.9442 12.7826C15.094 11.2133 15.609 9.26779 15.3861 7.33512C15.1632 5.40245 14.219 3.62521 12.7422 2.35896C11.2654 1.0927 9.36504 0.430822 7.42128 0.505729C5.47752 0.580636 3.63371 1.38681 2.25874 2.76296C0.883763 4.13911 0.0790232 5.98376 0.00551755 7.92784C-0.0679881 9.87193 0.595161 11.7721 1.86229 13.2482C3.12942 14.7242 4.90709 15.6674 6.83964 15.8889C8.7722 16.1104 10.7171 15.594 12.2853 14.4429H12.2841C12.3197 14.4904 12.3577 14.5355 12.4005 14.5794L16.9722 19.1518C17.1948 19.3746 17.4969 19.4999 17.8119 19.5C18.1269 19.5001 18.429 19.3751 18.6518 19.1524C18.8746 18.9297 18.9999 18.6276 19 18.3126C19.0001 17.9975 18.8751 17.6953 18.6524 17.4725L14.0807 12.9001C14.0383 12.8572 13.9926 12.8186 13.9442 12.7826ZM14.2505 8.21735C14.2505 9.07513 14.0816 9.92452 13.7534 10.717C13.4252 11.5095 12.9441 12.2296 12.3376 12.8361C11.7312 13.4427 11.0112 13.9238 10.2188 14.2521C9.42646 14.5803 8.57719 14.7493 7.71953 14.7493C6.86186 14.7493 6.0126 14.5803 5.22022 14.2521C4.42784 13.9238 3.70787 13.4427 3.10141 12.8361C2.49495 12.2296 2.01388 11.5095 1.68566 10.717C1.35745 9.92452 1.18852 9.07513 1.18852 8.21735C1.18852 6.48497 1.87661 4.82355 3.10141 3.59858C4.32621 2.37361 5.9874 1.68542 7.71953 1.68542C9.45166 1.68542 11.1128 2.37361 12.3376 3.59858C13.5624 4.82355 14.2505 6.48497 14.2505 8.21735Z" fill="white"/>
</svg>
